<svg xmlns="http://www.w3.org/2000/svg" width="54" height="81" fill="none"><path fill="#fff" d="M53.958 75.006c-.132-.587-.517-.993-.935-.993a.682.682 0 0 0-.138.014.697.697 0 0 0-.465.388.232.232 0 0 1-.207.13 9.573 9.573 0 0 0-.584-.016c-.43 0-.933.023-1.397.067a1.932 1.932 0 0 0-1.085-.392 1.943 1.943 0 0 0-1.655.777l-7.813 1.259a1.95 1.95 0 0 0-2.528.273 1.951 1.951 0 0 0-.842-.233 1.956 1.956 0 0 0-1.8.997c-3.667.358-7.206.54-10.523.54-9.71 0-17.066-1.576-20.182-4.324-1.01-.888-1.52-1.868-1.52-2.919.002-3.828 3.822-6.416 10.455-9.467l-.004.209c0 2.944 1.9 5.58 4.898 7.358a5.117 5.117 0 0 0-1.777 3.88H37.61a5.12 5.12 0 0 0-1.776-3.88c2.996-1.777 4.898-4.414 4.898-7.358 0-1.705-.75-3.223-1.755-4.698-1.43-2.097-3.338-3.552-5.037-4.975h-.002c-.012-.012-.026-.023-.04-.035a32.418 32.418 0 0 1-.54-.459c-.03-.024-.06-.051-.09-.077 1.186-.73 2.72-1.754 3.613-2.299.94-.574 1.91-1.167 2.905-1.75C51.5 40.15 52.974 33.81 53.064 31.402c.077-2.037-.667-3.75-2.04-4.699-1.13-.784-2.438-1.179-3.886-1.179-2.31 0-4.446.99-5.859 1.848h-.003a1.315 1.315 0 0 0-1.602 1.106 2.158 2.158 0 0 0-.358-.035c-.208 0-.366.047-.48.143l-3.86 3.201c-.441-.051-.855.06-1.164.318-.528.44-1.089 1.236-1.741 2.161-.21.296-.427.604-.654.917a6.79 6.79 0 0 0-1.947-.946v-.241c.561-.476.902-1.099.902-1.781 0-1.742-2.192-3.412-2.192-5.447v-6.63h.613a1.163 1.163 0 0 0 0-2.325h-.613v-3.537c6.048-.084 10.722-.798 11.527-4.62H28.18V8.232h2.014a1.146 1.146 0 1 0 0-2.292h-.906a5.552 5.552 0 0 0 2.997-4.93V.106H21.18v.9a5.55 5.55 0 0 0 2.999 4.93h-.906a1.146 1.146 0 1 0 0 2.293h2.014v1.424H13.76c.806 3.823 5.48 4.536 11.528 4.62l-.001 3.537h-.611a1.163 1.163 0 0 0 0 2.326h.611v6.629c0 2.036-2.191 3.705-2.191 5.446 0 .683.34 1.306.9 1.782v.24c-.835.262-1.569.64-2.149 1.102-.227-.313-.44-.614-.631-.886-.524-.746-.94-1.336-1.362-1.683a1.21 1.21 0 0 0-.783-.27c-.51 0-1.038.27-1.418.724-.618.745-.638 1.753-.043 2.248.427.353 1.138.678 1.958 1.05.334.151.678.306 1.03.475-.105.294-.16.596-.16.909 0 1.506 1.264 2.82 3.143 3.525v.337h-1.107a1.034 1.034 0 1 0 0 2.069h1.107v1.11c0 5.431-5.808 6.855-9.09 11.67-.31.455-.594.913-.84 1.38l-.03.054c-.033.066-.129.247-.105.2C5.035 62.001.002 65.096 0 70.572c0 1.734.772 3.294 2.294 4.635 3.59 3.158 11.283 4.899 21.665 4.899 3.391 0 7.029-.188 10.808-.56a1.944 1.944 0 0 0 1.453.645c.542 0 1.055-.226 1.424-.616a1.951 1.951 0 0 0 2.299-.32l8.265-1.333a1.956 1.956 0 0 0 2.643-.982c.635-.235 1.273-.52 1.727-.772a.226.226 0 0 1 .243.03.71.71 0 0 0 .588.15c.453-.102.695-.692.548-1.343h.001Zm-24.07-31.171h1.107a1.034 1.034 0 1 0 0-2.07h-1.107v-.336c1.878-.705 3.143-2.018 3.143-3.525 0-.225-.03-.444-.083-.659.413-.198.82-.383 1.214-.564 1.002-.453 1.87-.848 2.39-1.282.312-.256.495-.637.524-1.078l3.906-3.24c.23-.196.24-.55.227-.846.457.126 1.151-.307 1.191-.864h.001c1.196-.73 2.961-1.573 4.726-1.573.974 0 1.847.263 2.598.782.719.497 1.105 1.494 1.059 2.738-.061 1.583-1.11 7.254-12.152 13.735-1.02.599-2.002 1.196-2.947 1.775-.704.431-3.08 1.846-4.167 2.491-.004-.006-.01-.01-.014-.017-.022-.026-.043-.055-.065-.08-.939-1.172-1.551-2.512-1.551-4.274v-1.113Z"/></svg>