<svg width="123" height="134" viewBox="0 0 123 134" fill="none" xmlns="http://www.w3.org/2000/svg">
<path d="M88.9584 122.006C88.826 121.419 88.4406 121.012 88.0228 121.012C87.9783 121.012 87.9327 121.017 87.8849 121.027C87.6896 121.07 87.5246 121.208 87.4204 121.415C87.3802 121.493 87.3032 121.544 87.2131 121.544C87.0373 121.533 86.8419 121.529 86.6292 121.529C86.1993 121.529 85.6957 121.552 85.2323 121.596C84.9164 121.357 84.5452 121.223 84.1469 121.203C83.4892 121.171 82.8803 121.466 82.4917 121.981L74.6792 123.24C74.3796 123.033 74.0312 122.914 73.6665 122.898C73.088 122.87 72.5388 123.101 72.1513 123.512C71.893 123.372 71.6076 123.294 71.3091 123.28C70.5602 123.243 69.8699 123.638 69.5095 124.277C65.842 124.635 62.3026 124.817 58.9857 124.817C49.2759 124.817 41.9204 123.241 38.8042 120.493C37.7948 119.605 37.2836 118.625 37.2836 117.574C37.2858 113.746 41.1063 111.158 47.7391 108.107C47.7391 108.13 47.7358 108.23 47.7347 108.316C47.7347 111.26 49.6352 113.897 52.633 115.673C51.5455 116.615 50.8563 118.003 50.8563 119.554H72.6094C72.6094 118.003 71.9191 116.615 70.8326 115.673C73.8293 113.897 75.7309 111.26 75.7309 108.316C75.7309 106.611 74.9809 105.093 73.9758 103.618C72.5464 101.521 70.6383 100.066 68.9386 98.6429H68.9375C68.9245 98.6309 68.9115 98.6201 68.8974 98.6081C68.7139 98.4562 68.5349 98.3031 68.3568 98.149C68.3265 98.1251 68.2961 98.098 68.2668 98.0719C69.4531 97.3426 70.9878 96.318 71.88 95.7731C72.8199 95.199 73.7902 94.6063 74.7855 94.0235C86.4989 87.1487 87.9728 80.8101 88.064 78.4017C88.1411 76.3655 87.3965 74.6528 86.0235 73.7031C84.8947 72.9194 83.5858 72.5244 82.1379 72.5244C79.8282 72.5244 77.6922 73.5142 76.279 74.3717H76.2758C75.5073 74.2013 74.7866 74.7049 74.6737 75.4777C74.5587 75.4581 74.436 75.4429 74.3156 75.4429C74.1083 75.4429 73.9498 75.4896 73.8369 75.5862L69.9762 78.787C69.5345 78.736 69.121 78.8478 68.8116 79.105C68.2841 79.5446 67.723 80.3413 67.0707 81.266C66.8601 81.5623 66.6441 81.8695 66.4173 82.1831C65.8735 81.7913 65.2125 81.4679 64.4701 81.2367V80.9957C65.0313 80.5203 65.3721 79.8973 65.3721 79.2146C65.3721 77.4726 63.1796 75.8033 63.1796 73.7682V67.1387H63.7928C64.4343 67.1387 64.9553 66.6178 64.9553 65.9763C64.9553 65.655 64.825 65.3631 64.6156 65.1536C64.405 64.943 64.1141 64.8128 63.7928 64.8128H63.1796V61.2755C69.2284 61.192 73.902 60.4778 74.7074 56.6562H63.1796V55.2322H65.1941C65.8268 55.2322 66.3402 54.7199 66.3402 54.086C66.3402 53.4521 65.8279 52.9399 65.1941 52.9399H64.2878C66.0678 52.0151 67.2845 50.1548 67.2845 48.0101V47.106H56.18V48.0068C56.18 50.1515 57.3967 52.0108 59.1789 52.9366H58.2726C57.6399 52.9366 57.1265 53.4489 57.1265 54.0828C57.1265 54.7166 57.6388 55.2289 58.2726 55.2289H60.2871V56.6529H48.7593C49.5647 60.4756 54.2383 61.1887 60.2871 61.2723C60.2871 62.4152 60.286 63.6189 60.286 64.8095H59.6749C59.0335 64.8095 58.5125 65.3305 58.5125 65.973C58.5125 66.2943 58.6427 66.5841 58.8522 66.7958C59.0628 67.0052 59.3537 67.1355 59.6749 67.1355H60.286V73.765C60.286 75.8011 58.0946 77.4704 58.0946 79.2114C58.0946 79.8941 58.4354 80.5171 58.9955 80.9925V81.2334C58.1597 81.495 57.426 81.8727 56.8464 82.3351C56.6185 82.0225 56.4058 81.7208 56.2148 81.4494C55.6905 80.7027 55.2759 80.1133 54.8526 79.766C54.6388 79.5891 54.3674 79.4957 54.0701 79.4957C53.5599 79.4957 53.0324 79.766 52.6525 80.2197C52.0339 80.9653 52.0144 81.9726 52.6091 82.4675C53.0357 82.8213 53.7466 83.1459 54.5672 83.5171C54.9014 83.669 55.2455 83.8242 55.5961 83.9935C55.4919 84.2866 55.4365 84.5894 55.4365 84.902C55.4365 86.4085 56.701 87.7218 58.5798 88.4273V88.7638H57.4727C56.9007 88.7638 56.4383 89.2272 56.4383 89.7981C56.4383 90.369 56.9018 90.8325 57.4727 90.8325H58.5798V91.9428C58.5798 97.3741 52.7719 98.7981 49.4909 103.614C49.1804 104.068 48.8961 104.526 48.6497 104.992C48.6399 105.011 48.6301 105.028 48.6204 105.047C48.5867 105.113 48.4912 105.294 48.5151 105.246C40.0351 109.002 35.0022 112.097 35 117.573C35 119.307 35.7717 120.867 37.2945 122.207C40.8838 125.366 48.577 127.107 58.9586 127.107C62.3504 127.107 65.9875 126.919 69.7668 126.548C70.1152 126.934 70.6036 127.167 71.1267 127.189C71.1593 127.191 71.1897 127.191 71.2201 127.191C71.7617 127.191 72.2751 126.966 72.6441 126.576C72.9002 126.715 73.1857 126.796 73.4831 126.811C74.029 126.835 74.5543 126.633 74.9429 126.256L83.208 124.923C83.4447 125.038 83.6976 125.103 83.9635 125.114C84.784 125.154 85.5297 124.678 85.8509 123.941C86.4859 123.706 87.1241 123.421 87.5778 123.169C87.6516 123.13 87.7471 123.141 87.8209 123.198C88.0043 123.339 88.2138 123.393 88.4092 123.349C88.8618 123.247 89.1038 122.657 88.9573 122.006H88.9584ZM64.888 90.8347H65.9951C66.5671 90.8347 67.0294 90.3712 67.0294 89.8003C67.0294 89.2294 66.566 88.7659 65.9951 88.7659H64.888V88.4295C66.7657 87.724 68.0312 86.4107 68.0312 84.9042C68.0312 84.6795 68.0019 84.4602 67.9477 84.2453C68.3612 84.0467 68.7682 83.8622 69.1622 83.681C70.164 83.2283 71.0312 82.8333 71.5511 82.3991C71.8637 82.143 72.0471 81.762 72.0764 81.3213L75.9816 78.0804C76.2128 77.885 76.2226 77.5312 76.2085 77.2349C76.6665 77.3608 77.36 76.9277 77.4002 76.3709H77.4013C78.5974 75.6405 80.3622 74.7982 82.127 74.7982C83.1006 74.7982 83.9743 75.0609 84.7254 75.5797C85.4439 76.0768 85.8303 77.0743 85.7836 78.3181C85.7229 79.9006 84.6733 85.5717 73.6318 92.0525C72.6115 92.6516 71.6303 93.2485 70.685 93.8281C69.9806 94.259 67.6058 95.6744 66.5182 96.3191C66.5139 96.3126 66.5085 96.3082 66.5041 96.3017C66.4824 96.2757 66.4607 96.2474 66.439 96.2214C65.5001 95.0503 64.888 93.7098 64.888 91.9483V90.8379V90.8347Z" fill="white"/>
</svg>
