<svg xmlns="http://www.w3.org/2000/svg" width="123" height="65" fill="none"><path fill="#fff" d="M20.81 36.765H0v5.984h20.81v-5.984ZM20.81 29.335H0v3.708h20.81v-3.707ZM46.09 12.215H26.768v34.251h-2.971V56.89h5.943v-4.466h13.379v4.466h5.943V46.466H46.09v-34.25Zm-5.943 5.958v28.293h-7.436V18.173h7.436ZM77.303 52.424h5.943v-34.25h8.904v34.25h5.942V12.215h-20.79v40.21ZM102.552 12.215v40.21h20.81v-40.21h-20.81Zm5.948 34.251V18.173h8.919v28.293H108.5ZM52.033 52.424h20.81v-5.958H57.981V33.063h10.402v-5.958H57.981v-8.932h14.862v-5.958h-20.81v40.21ZM78.852 7.734v-.615c-.312-.005-.562-.052-.762-.15a1.188 1.188 0 0 1-.47-.394 1.571 1.571 0 0 1-.24-.6 3.937 3.937 0 0 1-.067-.764v-2.43c0-.282.02-.544.066-.774.046-.231.128-.436.24-.6.118-.17.272-.298.471-.39.2-.092.45-.138.762-.138V.294h1.11v.58c.307 0 .563.046.762.138.2.092.353.226.47.39.118.169.195.369.241.6.046.235.067.492.067.774v2.44c0 .277-.02.534-.067.764a1.587 1.587 0 0 1-.24.6c-.118.17-.276.298-.476.395-.2.092-.45.144-.757.144v.615h-1.11Zm-.465-2.502c0 .118.005.225.015.318.01.097.031.18.062.246a.36.36 0 0 0 .143.159.49.49 0 0 0 .25.056V1.966a.547.547 0 0 0-.245.05.379.379 0 0 0-.143.155.78.78 0 0 0-.067.246 3.26 3.26 0 0 0-.015.338v2.477Zm2.046-2.472a3.29 3.29 0 0 0-.016-.338.665.665 0 0 0-.066-.246.378.378 0 0 0-.143-.154.486.486 0 0 0-.246-.051v4.045c.102 0 .19-.015.25-.051a.378.378 0 0 0 .144-.154.667.667 0 0 0 .061-.246 3.12 3.12 0 0 0 .016-.323V2.76ZM86.81 5.037l-.665 2.697h-1.074l.635-2.574-1.31-4.866h1.212l.635 3.235.7-3.235h1.08L86.81 5.037ZM92.4.294h2.184v6.317h.588v1.98h-1.105v-.857h-2.352v.856H90.61V6.611h.113c.087 0 .163-.077.23-.226.066-.153.123-.348.169-.594.046-.246.087-.523.117-.831.031-.308.057-.62.072-.933.015-.313.03-.615.04-.903.011-.287.011-.533.011-.733V.29L92.4.294Zm.067 2.092c0 .518-.005.995-.016 1.436-.01.436-.035.836-.071 1.19-.041.353-.097.666-.174.933a1.899 1.899 0 0 1-.322.66h1.585V1.423h-1.007v.964h.005ZM99.51 2.699l.106 5.035h-1.104V.294h1.401l.772 4.235.773-4.235h1.391v7.44h-1.11l.107-4.953-.695 4.025h-.926l-.716-4.107ZM106.495 2.104c0-.282.026-.543.072-.78.046-.235.133-.435.251-.604a1.18 1.18 0 0 1 .485-.39c.2-.092.461-.139.773-.139s.567.047.772.144c.204.097.363.226.481.395.117.17.204.369.25.605.046.236.072.492.072.774v3.815c0 .282-.026.543-.072.78a1.583 1.583 0 0 1-.25.604c-.118.17-.282.298-.481.39-.2.092-.46.138-.772.138s-.573-.046-.773-.143a1.19 1.19 0 0 1-.485-.395c-.123-.17-.2-.37-.251-.605a3.665 3.665 0 0 1-.072-.774V2.104Zm1.576-.795c-.103 0-.19.02-.251.052a.365.365 0 0 0-.143.158.685.685 0 0 0-.067.252c-.01.097-.015.21-.015.338v3.805c0 .118.005.23.015.328.01.097.031.18.062.251.03.072.076.123.143.164a.51.51 0 0 0 .256.057.504.504 0 0 0 .25-.052.369.369 0 0 0 .143-.154.834.834 0 0 0 .062-.25c.01-.098.015-.211.015-.34V2.11c0-.123-.005-.23-.015-.328a.875.875 0 0 0-.062-.251.354.354 0 0 0-.138-.164.522.522 0 0 0-.255-.057ZM115.348 7.734V1.422h-1.064v4.333c0 .343-.025.64-.076.902a1.743 1.743 0 0 1-.256.651 1.105 1.105 0 0 1-.471.395 1.798 1.798 0 0 1-.736.134V6.714a.347.347 0 0 0 .353-.246c.061-.165.087-.4.087-.708V.284l1.048.01h2.215v7.44h-1.1ZM122.258 7.734V1.422h-1.064v4.333c0 .343-.026.64-.077.902a1.743 1.743 0 0 1-.256.651 1.087 1.087 0 0 1-.475.395c-.195.087-.44.134-.737.134V6.714a.347.347 0 0 0 .353-.246c.062-.165.087-.4.087-.708V.284l1.049.01h2.214v7.44h-1.094ZM84.243 59.31l.107 5.035h-1.104V56.9h1.401l.772 4.236.773-4.236h1.39v7.44h-1.11l.108-4.953-.695 4.025h-.926l-.716-4.102ZM91.577 58.71c0-.282.025-.543.071-.78.046-.235.133-.435.251-.604.123-.17.281-.298.486-.39.2-.092.46-.138.772-.138s.568.046.772.143c.205.092.364.226.481.395.118.17.205.37.25.605.047.236.072.492.072.774v3.815c0 .282-.025.544-.071.78a1.573 1.573 0 0 1-.25.604c-.118.17-.282.298-.482.39-.2.093-.46.139-.772.139s-.573-.046-.772-.144a1.194 1.194 0 0 1-.486-.395c-.118-.169-.2-.369-.25-.605a4.029 4.029 0 0 1-.072-.774V58.71Zm1.575-.79a.57.57 0 0 0-.25.052.361.361 0 0 0-.144.159.693.693 0 0 0-.066.251c-.01.098-.016.21-.016.339v3.804c0 .118.005.23.016.328.01.097.03.18.061.251.03.072.077.123.143.164a.511.511 0 0 0 .256.057c.102 0 .19-.016.25-.051a.378.378 0 0 0 .144-.154.82.82 0 0 0 .061-.252c.01-.097.016-.21.016-.338v-3.804c0-.123-.006-.231-.016-.329a.86.86 0 0 0-.061-.25.362.362 0 0 0-.138-.165c-.062-.046-.149-.061-.256-.061ZM102.153 61.987v.656c0 .261-.025.508-.071.728-.051.22-.133.41-.251.57a1.166 1.166 0 0 1-.481.368c-.204.088-.46.134-.767.134a1.97 1.97 0 0 1-.772-.134 1.1 1.1 0 0 1-.476-.379 1.532 1.532 0 0 1-.245-.59 3.92 3.92 0 0 1-.072-.764v-3.86c0-.283.026-.544.072-.78s.133-.436.25-.6a1.21 1.21 0 0 1 .481-.39c.205-.092.46-.138.767-.138.312 0 .563.046.767.144.205.097.364.225.486.394.118.165.2.365.251.585.046.226.072.472.072.733v.59h-1.11v-.58a2.62 2.62 0 0 0-.016-.307.742.742 0 0 0-.061-.236.35.35 0 0 0-.143-.154.495.495 0 0 0-.251-.051.544.544 0 0 0-.245.051.329.329 0 0 0-.138.154.772.772 0 0 0-.062.246 3.32 3.32 0 0 0-.015.333v3.856c0 .118.005.23.015.333.01.103.031.19.062.262.03.072.076.128.138.17a.451.451 0 0 0 .25.06.45.45 0 0 0 .236-.05.381.381 0 0 0 .143-.154.658.658 0 0 0 .066-.241c.01-.093.016-.2.016-.318v-.646h1.104v.005ZM106.107 64.34V56.9h1.104v3.128h.322l.855-3.128h1.176l-1.028 3.64 1.105 3.8h-1.177l-.9-3.19h-.353v3.19h-1.104ZM116.269 62.469c0 .343-.031.63-.097.871-.067.236-.164.43-.297.58a1.136 1.136 0 0 1-.491.317c-.194.067-.43.103-.696.103h-1.595v-7.435h1.539c.297 0 .547.041.752.123.199.083.363.2.486.354.123.154.21.344.266.564.051.22.076.472.076.749v.266c0 .195-.015.38-.046.544-.03.164-.076.313-.133.44a1.21 1.21 0 0 1-.209.319.618.618 0 0 1-.276.174.918.918 0 0 1 .496.39c.066.102.122.23.163.38.041.148.062.322.062.522v.739Zm-1.161-3.774c0-.128-.01-.241-.026-.334a.622.622 0 0 0-.076-.225.304.304 0 0 0-.144-.123.585.585 0 0 0-.225-.041h-.44v1.959h.445a.51.51 0 0 0 .256-.057.358.358 0 0 0 .143-.159.908.908 0 0 0 .062-.261c.01-.103.01-.226.01-.364l-.005-.395Zm.061 3.107c0-.138-.01-.256-.025-.359a.697.697 0 0 0-.087-.256.414.414 0 0 0-.169-.154.629.629 0 0 0-.281-.051h-.415v2.235h.491c.082 0 .154-.01.215-.036a.299.299 0 0 0 .154-.123.587.587 0 0 0 .086-.24c.021-.103.031-.231.031-.385v-.631ZM120.846 56.895h1.468l1.048 7.445h-1.11l-.153-1.318h-1.048l-.154 1.318h-1.11l1.059-7.445Zm.327 5.071h.803l-.404-3.492-.399 3.492Z"/></svg>