<svg xmlns="http://www.w3.org/2000/svg" width="150" height="23" fill="none"><g clip-path="url(#a)"><path fill="#FFAC30" d="M74.474-.062h4.818c3.053 0 5.527 2.483 5.527 5.547v3.911H62.57V5.485h11.904V-.062Z"/><path fill="#FFAC30" fill-rule="evenodd" d="M79.385 10.833c.746 0 1.45.15 2.113.452a5.4 5.4 0 0 1 1.725 1.232c.497.51.886 1.108 1.165 1.794.29.676.436 1.388.436 2.137 0 .748-.145 1.466-.436 2.152a5.754 5.754 0 0 1-1.165 1.793 5.522 5.522 0 0 1-1.725 1.217 5.044 5.044 0 0 1-2.113.452H68.042c-.746 0-1.45-.15-2.114-.452a5.71 5.71 0 0 1-1.74-1.216 6.146 6.146 0 0 1-1.165-1.794 5.649 5.649 0 0 1-.42-2.152c0-.749.14-1.461.42-2.137a5.883 5.883 0 0 1 1.165-1.794 5.582 5.582 0 0 1 1.74-1.232 5.044 5.044 0 0 1 2.114-.452h11.343Zm-10.333 4.055h5.422v3.12h-5.422c-.435 0-.803-.151-1.104-.453a1.51 1.51 0 0 1-.45-1.107c0-.437.15-.806.45-1.108.3-.301.669-.452 1.104-.452Z" clip-rule="evenodd"/><path fill="#fff" d="M-.066 14.704h7.863v7.175h4.91v-7.175h7.894v-3.743H-.066v3.743Z"/><path fill="#fff" fill-rule="evenodd" d="M40.34 21.879H34.81l-1.259-1.56h-9.572l-1.259 1.56h-5.531l8.81-10.918h5.532l8.81 10.918Zm-9.307-4.68-2.269-2.807-2.269 2.808h4.538Z" clip-rule="evenodd"/><path fill="#fff" d="M40.982 10.961h20.666v10.918h-4.91v-7.175H45.892v7.175h-4.91V10.96ZM101.503 19.071H91.185c-.828 0-1.58-.12-2.253-.359a4.84 4.84 0 0 1-1.709-1.076 4.852 4.852 0 0 1-1.103-1.762c-.249-.707-.373-1.513-.373-2.418v-2.495h4.91v2.495c0 1.04.518 1.56 1.554 1.56h9.292v-4.055h4.91v10.918h-4.91V19.07ZM107.643 10.961h4.911v5.99l8.639-5.99h7.117l-7.878 5.459 7.878 5.459h-7.117l-4.32-2.995-4.319 2.995h-4.911V10.96ZM149.934 21.879h-4.91V15.64l-10.846 6.239h-4.91V10.96h4.91V17.2l10.846-6.239h4.91v10.918Z"/></g><defs><clipPath id="a"><path fill="#fff" d="M0 0h150v22.125H0z"/></clipPath></defs></svg>