<svg xmlns="http://www.w3.org/2000/svg" width="109" height="134" fill="none"><path fill="#fff" d="M.927 100.584v-.67h107.146v.67H.927Zm83.842-49.556 3.08.47v1.406h-3.08v-1.876Zm.536 1.34h2.075v-.469l-2.075-.335v.804Zm-.536 1.004h3.08v1.808h-3.08v-1.808Zm.536 1.273h2.075v-.737h-2.075v.737Zm-.536.937h3.08v1.808h-3.08v-1.808Zm.536 1.273h2.075v-.737h-2.075v.737Zm-.536.937h3.08V59.6h-3.08v-1.808Zm.536 1.273h2.075v-.737h-2.075v.736Zm-.536.937h3.08v1.808h-3.08v-1.808Zm.536 1.205h2.075v-.736h-2.075v.736Zm-.536 1.005h3.08v1.808h-3.08v-1.808Zm.536 1.205h2.075v-.736h-2.075v.736Zm-.536.938h3.08v1.808h-3.08v-1.808Zm.536 1.272h2.075v-.736h-2.075v.736Zm-.536.938h3.08v1.808h-3.08v-1.808Zm.536 1.272h2.075V67.1h-2.075v.737Zm2.544 5.76h-3.08v-2.479h3.08v2.478Zm-.535-2.01h-2.01v1.406h2.076v-1.406h-.066Zm-2.545-2.812h3.08v1.808h-3.08v-1.808Zm.536 1.272h2.075v-.737h-2.075v.737ZM79.41 59.265h4.755v1.474h-4.754v-1.474Zm.536.938h3.75V59.8h-3.75v.402Zm4.286 2.88h-.335c-.401 0-.736-.067-1.004-.201-.603.2-1.474.2-2.076 0-.335.134-.737.2-1.072.2h-.267V61.14H84.3v1.943h-.067Zm-.536-1.407h-3.75v.938c.268 0 .536-.067.737-.201l.134-.067.134.067c.268.134.602.2.937.2.335 0 .67-.066.938-.2l.134-.067.134.067c.2.067.468.134.736.2v-.937h-.134Zm-3.683 1.741h3.683l.536 4.22h-4.755l.536-4.22Zm3.55 3.683-.402-3.147h-2.746l-.469 3.147h3.616Zm-1.742-2.745a1.2 1.2 0 0 1 1.206 1.205 1.2 1.2 0 0 1-1.206 1.206 1.2 1.2 0 0 1-1.205-1.206c0-.67.603-1.205 1.205-1.205Zm0 1.875c.402 0 .67-.335.67-.67a.671.671 0 0 0-.67-.67c-.335 0-.67.335-.67.67s.335.67.67.67Zm2.21 7.366H79.48v-3.08h4.553v3.08Zm-.535-2.612h-3.483v2.01h3.483v-2.01Zm-3.282-2.946h2.947c.468 0 .87.469.87 1.005 0 .535-.402 1.004-.87 1.004h-2.947c-.469 0-.87-.469-.87-1.004.067-.603.468-1.005.87-1.005Zm0 1.406h2.947c.2 0 .334-.2.334-.469 0-.267-.133-.468-.334-.468h-2.947c-.2 0-.335.2-.335.468.067.268.201.47.335.47Zm-5.759-12.991h.268v12.723h-3.282v-9.174c-.066-1.875 1.273-3.415 3.014-3.55ZM71.844 68.64h2.344V57.055c-1.34.201-2.344 1.474-2.344 2.947v8.639Zm3.483-12.188h.267c1.742.134 3.08 1.674 3.08 3.549v9.174h-3.347V56.453Zm.535 12.188h2.344v-8.639c0-1.473-1.004-2.746-2.344-2.947v11.586Zm-4.888 1.205h8.17v.938h-.536v-.402h-7.166v.402h-.535v-.938h.067Zm0 1.406h8.17v.938h-.536v-.402h-7.166v.402h-.535v-.938h.067Zm0 2.344v-.937h8.17v.937h-.536v-.402h-7.166v.402h-.468Zm8.304-14.866v-1.54c0-2.143-1.876-3.818-4.152-3.818-2.277 0-4.152 1.741-4.152 3.817l-.067 1.474h-4.889v-1.474c0-3.817 2.746-7.232 6.63-8.236v-1.206h5.09v1.206c3.883 1.071 6.629 4.42 6.629 8.236v1.54h-5.09Zm-1.876-9.309-.2-.067v-1.071h-4.018v1.071l-.201.067c-3.75.938-6.43 4.152-6.43 7.835v.938h3.885l.067-.938c0-2.41 2.143-4.352 4.688-4.352 2.544 0 4.62 1.942 4.687 4.352v1.005h4.018v-1.005c-.067-3.683-2.745-6.897-6.495-7.835Zm-3.683-.602h3.08v3.214h-3.08v-3.214Zm.47 2.611h2.008v-2.143h-2.009v2.143Zm6.36-1.674-.87-.469h3.014l.937 3.684-.803-1.139c-.87-1.34-2.21-2.076-2.277-2.076Zm1.742 0h-.737c.268.201.603.469 1.005.87l-.268-.87Zm-2.813-15.402h2.88l1.072 1.34h-3.952v-1.34Zm.536.803h2.277l-.2-.267h-2.077v.267Zm-.67-1.942-2.879-8.37h-2.813l-2.946 8.37v.804h-2.813l4.554-10.313h5.223l4.554 10.313h-2.88v-.804Zm.536.268h1.608l-4.085-9.241h-4.554l-4.085 9.241h1.473v-.335l3.148-8.84h3.549l3.013 8.773v.402h-.067Zm-3.013-12.59v-.937c0-.536.469-1.005 1.071-1.005h.268l-.2 1.943h-1.14Zm.535-.937v.402h.201l.067-.804a.452.452 0 0 0-.267.402Zm-.602-3.75h-3.281c-.335 0-.603-.335-.603-.737 0-.401.268-.736.603-.736h3.28c.336 0 .603.335.603.736 0 .402-.267.737-.602.737Zm0-1.005h-3.281s-.068.067-.068.201.068.201.068.201h3.28s.068-.067.068-.2c0-.135-.067-.202-.067-.202Zm-.335-1.004h-2.612c-.268 0-.535-.268-.535-.603 0-.134.067-.268.067-.335l1.138-3.616h1.205l1.139 3.616c.067.134.067.201.067.335.067.335-.134.603-.469.603Zm0-.67-1.072-3.348h-.468l-1.072 3.281v.201h2.612v-.134Zm-1.34-5.759c-.267 0-.468.201-.468.469 0 .268.2.469.469.469.267 0 .468-.201.468-.47 0-.267-.2-.468-.468-.468Zm-1.54 8.974H76.8v1.875l-.402-.268c-.335-.268-.737-.402-1.205-.402-.47 0-.87.134-1.206.402l-.402.268v-1.875Zm.536.937c.67-.335 1.473-.335 2.21 0v-.402h-2.21v.402Zm1.741 2.344v.87h-1.339v-.87c0-.335.335-.67.67-.67s.67.335.67.67Zm-.803 0v.335h.268v-.335a.144.144 0 0 0-.134-.134.144.144 0 0 0-.134.134Zm-1.273.87v-1.07c0-.67.603-1.273 1.407-1.273.803 0 1.406.602 1.406 1.272v1.072h-.536v-1.072c0-.402-.402-.736-.87-.736-.47 0-.87.334-.87.736v1.072h-.537Zm-1.473.402h5.692v.87h-.535v-.334h-4.621v.335h-.536v-.87Zm0 2.143v-.87h5.692v.87h-.535v-.335h-4.621v.335h-.536Zm1.206-3.482v.938H72.38l-.268-1.942h.268c.603 0 1.139.468 1.139 1.004Zm-.536 0c0-.134-.134-.335-.268-.402l.067.804h.2v-.402Zm-2.277 15.737h-3.951l1.071-1.34h2.88v1.34Zm-.536-.803h-2.076l-.2.267h2.276v-.267Zm-3.013 11.116h-22.1v-.536h22.1v.536Zm-42.725-5.023h20.023v.536H24.432v-.535Zm19.085-.87h-1.54v.335h-.535v-.87h2.611v.87h-.535v-.335Zm-.803-4.353 1.205 3.415h-2.41l1.205-3.415Zm0 1.607-.469 1.34h.938l-.47-1.34Zm-7.634-3.75v.67l5.558 6.228H28.316l5.625-6.295v-.603h.134v-.469h-.335v-.803h.536v-1.272c-.335-.067-.603-.268-.67-.536-.401-.201-.67-.536-.67-1.005 0-.602.603-1.071 1.34-1.138v-.134h.536v.134c.803.067 1.406.603 1.406 1.138 0 .402-.268.804-.737 1.005 0 .268-.267.402-.67.469v1.272h.47v.803h-.268v.47h.067v.066Zm-.804-4.754c-.469.067-.804.334-.804.67 0 .2.201.401.402.535.134-.067.268-.134.402-.134v-1.071Zm.469 11.049c.2-.067.402-.268.402-.536v-.067l-.402.201v.402Zm0-.938c.134-.066.2-.2.2-.334a.368.368 0 0 0-.2-.335v.67Zm-.469.938v-.469a752.08 752.08 0 0 0-.402-.2v.066c0 .268.201.47.402.603Zm0-.938v-.67c-.134.068-.2.202-.2.336 0 .2.066.267.2.334Zm.938-8.84c.267-.133.468-.334.468-.535 0-.335-.401-.602-.87-.67v1.072c.134 0 .268.067.402.134Zm-.67 4.354v-.335h-.067v.268l-4.955 5.558h4.151c-.134-.2-.267-.402-.267-.603 0-.2.066-.401.2-.602v-.067c0-.402.268-.67.67-.804v-.335c-.268-.067-.469-.2-.469-.402 0-.2.201-.334.47-.401h-.135v-.402h.134v-.268h.469v.268h.134v.402h-.134c.268.067.469.2.469.401s-.201.335-.47.402v.335c.403.067.67.402.67.804v.067c.134.2.201.401.201.602 0 .201-.067.47-.268.603H39.5l-4.955-5.491Zm-7.5 5.625h-1.54v.335h-.536v-.87h2.611v.87h-.535v-.335Zm-.804-4.353 1.206 3.415h-2.411l1.205-3.415Zm0 1.607-.469 1.34h.938l-.469-1.34Zm1.34 4.688v2.612h-2.612v-2.612h2.611Zm-2.143 2.076h1.607v-1.54h-1.608v1.54Zm.803-.268c-.268 0-.469-.2-.469-.536 0-.334.201-.535.47-.535.267 0 .468.2.468.535s-.201.536-.469.536Zm-1.808 1.206h5.826v2.008h-5.826V45.07Zm.469 1.473h4.821v-1.005h-4.821v1.005Zm2.009 3.683-.067.134H24.9v-2.947h4.219l-.47.47c0 .066-1.204 1.205-1.74 2.343Zm-1.474-2.277v1.875h1.072c.335-.736.938-1.473 1.34-1.875h-2.412Zm.737 1.473c-.268 0-.469-.2-.469-.535s.201-.536.47-.536c.267 0 .468.2.468.536 0 .334-.201.535-.469.535Zm2.01-4.754v-2.612h4.62v1.473l-1.34 1.139h-3.28Zm4.084-2.076h-3.55v1.54h2.546l1.004-.804v-.736Zm-7.634 8.237h2.612c.937-1.742 2.343-3.08 4.085-3.818v-.267c0-.134-.067-.804.535-1.34l1.54-1.272v-2.076h2.01v2.076l1.54 1.272c.602.536.602 1.206.535 1.34v.267c1.742.737 3.148 2.077 4.085 3.818h2.612V52.1h-.536v-.737h-2.41l-.067-.134c-.87-1.74-2.277-3.08-4.085-3.817l-.134-.067v-.67s.067-.468-.402-.87L34.812 44.4V42.59h-1.005v1.808l-1.74 1.406c-.403.335-.403.87-.403.87v.67l-.134.067c-1.74.737-3.147 2.01-4.085 3.817l-.067.134h-2.41v.737h-.536v-1.272h.2ZM24.7 61.81h3.013v.536h-3.08v-.536h.067Zm2.88 5.893h-2.612v-1.406h2.611v1.406Zm-.536-.87h-1.54v.334h1.54v-.334Zm-2.076-4.085h2.611v1.406h-2.611v-1.406Zm.535.87h1.54v-.335h-1.54v.335Zm2.076 2.344h-2.611v-1.406h2.611v1.406Zm-.535-.87h-1.54v.334h1.54v-.335ZM64.21 48.215l.402.2c.134-.133.268-.2.335-.2l.2.469c-.2.067-.267.134-.267.2h-.536s-.134-.133-.268-.2a2.221 2.221 0 0 1-.937-.67l.401-.335c.201.268.402.469.67.536Zm-2.946-.134h.535c0 .067.201.268.536.402a2.733 2.733 0 0 1 1.942 2.611V52.1h-1.54v-1.005c0-.602-.536-1.138-1.206-1.138-.602 0-1.138.536-1.138 1.139V52.1h-1.54v-1.005c0-1.205.803-2.21 1.942-2.611.2-.067.469-.268.469-.402Zm-1.942 3.014v.468h.535v-.468c0-.938.737-1.675 1.675-1.675.937 0 1.674.737 1.674 1.675v.468h.535v-.468c0-.938-.67-1.809-1.54-2.076-.134-.068-.402-.201-.603-.402-.2.2-.468.334-.602.401-1.072.268-1.674 1.139-1.674 2.077Zm-1.407-2.88.402.2c.134-.133.268-.2.335-.2.268-.067.469-.268.67-.469l.401.335c-.267.335-.535.536-.937.67-.134.067-.201.134-.268.134h-.536s-.134-.134-.268-.201a2.222 2.222 0 0 1-.937-.67l.402-.335c.2.268.468.469.736.536Zm-3.08-.134h.535c0 .067.201.268.536.402a2.733 2.733 0 0 1 1.942 2.611V52.1h-1.54v-1.005c0-.602-.536-1.138-1.205-1.138-.67 0-1.139.536-1.139 1.139V52.1h-1.54v-1.005c0-1.205.804-2.21 1.942-2.611.268-.067.469-.268.469-.402Zm-1.942 3.014v.468h.535v-.468c0-.938.804-1.675 1.675-1.675.937 0 1.674.737 1.674 1.675v.468h.536v-.468c0-.938-.67-1.809-1.54-2.076-.135-.068-.403-.201-.603-.402-.201.2-.47.334-.603.401-1.005.268-1.674 1.139-1.674 2.077Zm-1.34-2.88.402.2c.134-.133.268-.2.335-.2.268-.067.469-.268.67-.469l.401.335c-.2.335-.535.536-.937.67-.134.067-.268.134-.268.2h-.536s-.133-.133-.267-.2a2.22 2.22 0 0 1-.938-.67l.402-.335c.268.201.469.402.736.469Zm-5.625.67h-.535s-.134-.134-.268-.201l.2-.47c.067.068.201.135.335.202.134-.134.268-.201.335-.201.268-.067.469-.268.67-.469l.402.335c-.268.335-.536.536-.938.67-.067.067-.134.134-.2.134Zm2.411-.804h.536c0 .134.268.335.535.402a2.733 2.733 0 0 1 1.943 2.611V52.1h-1.54v-1.005c0-.602-.536-1.138-1.206-1.138-.67 0-1.139.536-1.139 1.139V52.1h-1.54v-1.005c0-1.205.804-2.21 1.942-2.611.201-.067.47-.268.47-.402Zm-2.009 3.014v.468h.536v-.468c0-.938.803-1.675 1.674-1.675.938 0 1.674.737 1.674 1.675v.468h.536v-.468c0-.938-.67-1.809-1.607-2.076-.134-.068-.402-.201-.603-.402-.2.2-.469.334-.603.401-.937.268-1.54 1.139-1.607 2.077ZM24.7 52.703h2.946v-.067c1.072-3.08 3.75-5.09 6.764-5.09 3.014 0 5.692 2.076 6.764 5.09v.067h24.241v.535H40.84l-.134-.468c-.938-2.813-3.482-4.755-6.228-4.755-2.746 0-5.29 1.875-6.228 4.755l-.134.468h-3.348v-.535H24.7Zm19.889 13.594H47.2v1.406h-2.612v-1.406Zm.536.87h1.54v-.334h-1.54v.334Zm.736-3.616c-.468 0-.87-.402-.87-.937 0-.536.401-.938.87-.938.47 0 .87.402.87.938.068.535-.334.937-.87.937Zm0-1.272c-.2 0-.401.2-.401.402 0 .2.2.402.401.402s.402-.201.402-.402c0-.268-.134-.402-.402-.402Zm-1.138 3.683.469-2.009h1.406L47 65.962h-2.277Zm1.473-1.54h-.603l-.2 1.004h1.004l-.2-1.004Zm19.153 3.281h-2.612v-1.406h2.611v1.406Zm-.536-.87h-1.54v.334h1.54v-.334Zm-.737-3.282c-.469 0-.87-.402-.87-.937 0-.536.401-.938.87-.938s.87.402.87.938c0 .535-.401.937-.87.937Zm0-1.272c-.2 0-.402.2-.402.402 0 .2.201.402.402.402s.402-.201.402-.402c-.067-.268-.2-.402-.402-.402Zm-1.205 3.683.469-2.009h1.406l.402 2.009H62.87Zm1.473-1.54h-.603l-.2 1.004h1.004l-.201-1.004Zm-5.022 3.281H56.71v-1.406h2.612v1.406Zm-.536-.87h-1.54v.334h1.54v-.334Zm-.804-3.282c-.468 0-.87-.402-.87-.937 0-.536.401-.938.87-.938s.87.402.87.938c.068.535-.334.937-.87.937Zm0-1.272c-.2 0-.402.2-.402.402 0 .2.201.402.402.402s.402-.201.402-.402c0-.268-.2-.402-.402-.402Zm-1.138 3.683.469-2.009h1.406l.402 2.009h-2.277Zm1.473-1.54h-.603l-.2 1.004h1.004l-.2-1.004Zm-9.375-6.094c-1.072 0-1.942.937-1.942 2.009v1.004h-2.143v-1.004c0-1.875 1.205-3.482 2.88-4.018.468-.201.937-.536.937-.87h.536c0 .334.468.669.937.87.737.2 1.34.67 1.875 1.205.469-.602 1.139-1.004 1.875-1.205.469-.201.938-.536.938-.87h.535c0 .334.47.669.938.87.737.2 1.34.67 1.875 1.205.469-.602 1.139-1.004 1.875-1.205.469-.201.938-.536.938-.87h.535c0 .334.47.669.938.87 1.741.536 2.88 2.143 2.88 4.018v1.004h-2.143v-1.004c0-1.139-.87-2.01-1.942-2.01s-1.942.938-1.942 2.01v1.004h-2.143v-1.004c0-1.139-.87-2.01-1.942-2.01s-1.942.938-1.942 2.01v1.004h-2.143v-1.004c-.268-1.072-1.139-2.01-2.21-2.01Zm2.477 2.009v.469h1.139v-.47c0-1.405 1.138-2.544 2.478-2.544 1.339 0 2.477 1.139 2.477 2.545v.469h1.139v-.47c0-1.405 1.138-2.544 2.478-2.544 1.339 0 2.477 1.139 2.477 2.545v.469h1.139v-.47a3.68 3.68 0 0 0-2.545-3.481c-.268-.134-.736-.335-1.004-.67-.268.335-.737.603-1.005.67-.736.2-1.34.67-1.808 1.272l-.2.268-.202-.268c-.468-.603-1.071-1.072-1.808-1.272-.268-.134-.736-.335-1.004-.67-.268.335-.737.603-1.005.67-.736.2-1.34.67-1.808 1.272l-.2.268-.336-.268c-.468-.603-1.071-1.072-1.808-1.272-.268-.134-.736-.335-1.004-.67-.268.335-.737.603-1.005.67a3.68 3.68 0 0 0-2.544 3.482v.469h1.004v-.47c0-1.405 1.138-2.544 2.478-2.544 1.34 0 2.477 1.139 2.477 2.545Zm1.809 7.366h-2.612v-1.406h2.612v1.406Zm-.536-.87h-1.54v.334h1.54v-.334Zm-.737-3.282c-.468 0-.87-.402-.87-.937 0-.536.401-.938.87-.938s.87.402.87.938c0 .535-.401.937-.87.937Zm0-1.272c-.2 0-.402.2-.402.402 0 .2.201.402.402.402s.402-.201.402-.402c-.067-.268-.2-.402-.402-.402Zm-1.138 3.683.469-2.009h1.406l.402 2.009h-2.277Zm1.406-1.54h-.603l-.2 1.004h1.004l-.2-1.004ZM24.7 54.176h4.219c.134-3.014 2.544-5.424 5.558-5.424s5.424 2.41 5.558 5.424h25.448v.536H39.498v-.268c0-2.88-2.276-5.157-5.022-5.157-2.746 0-5.022 2.344-5.022 5.157v.268H24.7v-.536Zm5.759 2.143a1.03 1.03 0 0 1 1.005-1.005 1.03 1.03 0 0 1 1.004 1.005 1.03 1.03 0 0 1-1.005 1.004.986.986 0 0 1-1.004-1.004Zm1.406 0c0-.268-.2-.469-.468-.469s-.47.201-.47.469c0 .268.202.469.47.469.267 0 .468-.201.468-.47Zm2.545-.201c-1.272 0-2.344-1.072-2.344-2.41 0-1.34 1.072-2.412 2.344-2.412 1.272 0 2.344 1.072 2.344 2.411 0 1.34-1.005 2.41-2.344 2.41Zm0-4.353c-1.004 0-1.875.87-1.875 1.875 0 1.072.804 1.875 1.875 1.875 1.005 0 1.875-.87 1.875-1.875 0-1.004-.87-1.875-1.875-1.875Zm3.014 5.625a1.03 1.03 0 0 1-1.005-1.004 1.03 1.03 0 0 1 1.005-1.005 1.03 1.03 0 0 1 1.004 1.005c-.067.535-.469 1.004-1.005 1.004Zm0-1.473c-.268 0-.47.2-.47.469 0 .268.202.469.47.469.267 0 .468-.201.468-.47 0-.267-.2-.468-.469-.468Zm1.339 1.674h-.469l.268-.402c.2-.267.268-.535.268-.87 0-.268-.067-.536-.201-.804l-.268-.402h.469c2.745.134 5.022 2.344 5.022 4.956v1.272h-2.544V60.07c0-1.34-1.072-2.41-2.545-2.478Zm3.08 2.478v.737h1.474v-.737c0-2.143-1.809-4.018-4.085-4.353.067.201.067.402.067.603 0 .268-.067.536-.134.803 1.54.201 2.678 1.474 2.678 2.947Zm-.736 1.741h3.08v.536h-3.08v-.536Zm.267.938h2.612v1.406h-2.611v-1.406Zm.536.87h1.54v-.335h-1.54v.335Zm2.076 4.085h-2.611v-1.406h2.611v1.406Zm-.535-.87h-1.54v.334h1.54v-.334Zm-2.077-2.277h2.612v1.406h-2.611v-1.406Zm.536.87h1.54v-.335h-1.54v.335Zm-9.777-7.366-.335-.268.402-.2c.402-.202.67-.603.737-1.072l.067-.402.335.2c.067.068.535.336 1.205.336.402 0 .803-.134 1.138-.335l.335-.201.067.402c.067.468.335.87.804 1.071l.402.201-.335.268c-.536.402-1.072 1.138-1.072 2.009v1.272H33.34V60.07c-.134-.87-.536-1.607-1.206-2.009Zm1.54 2.009v.737h1.54v-.737c0-.804.402-1.607 1.005-2.143a2.221 2.221 0 0 1-.67-.938c-.334.134-.736.201-1.138.201-.469 0-.87-.133-1.138-.2-.134.334-.335.67-.603.87.67.536 1.004 1.34 1.004 2.21Zm-.736 1.741h3.08v.536h-3.08v-.536Zm.268.938h2.611v1.406h-2.611v-1.406Zm.535.87h1.54v-.335h-1.54v.335Zm2.076 4.085h-2.611v-1.406h2.611v1.406Zm-.535-.87h-1.54v.334h1.54v-.334Zm-2.076-2.277h2.611v1.406h-2.611v-1.406Zm.535.87h1.54v-.335h-1.54v.335Zm-8.772-4.085V60.07c0-2.612 2.277-4.822 5.022-4.956h.536l-.268.47c-.134.267-.268.535-.268.803s.067.535.201.803l.268.402h-.469c-1.406.067-2.544 1.206-2.544 2.478v1.272h-2.478Zm4.62-4.219a2.409 2.409 0 0 1-.134-.736c0-.201.067-.469.134-.67-2.276.335-4.085 2.21-4.085 4.353v.737h1.474v-.737c0-1.473 1.138-2.746 2.611-2.947Zm12.456-6.696-.067-.201c-.535-1.139-1.674-2.344-1.74-2.344l-.47-.469h4.22v2.947h-1.943v.067Zm1.474-2.478h-2.411c.401.469.937 1.139 1.339 1.875h1.072v-1.875Zm-1.273.87c0-.267.201-.535.469-.535.268 0 .469.2.469.536 0 .267-.201.535-.47.535-.267 0-.468-.267-.468-.535Zm-6.16-5.29v-1.473h4.62v2.612H37.49l-1.406-1.139Zm4.084.603v-1.54h-3.55v.736l1.005.804h2.545Zm3.817-2.076v2.612h-2.611v-2.612h2.611Zm-2.076 2.076h1.608v-1.54H41.91v1.54Zm.804-.268c-.268 0-.469-.2-.469-.536 0-.334.201-.468.469-.468.268 0 .469.2.469.535s-.201.47-.47.47Zm1.808 3.215h-5.826v-2.01h5.826v2.01Zm-.536-1.54h-4.821v.937h4.821v-.938Zm23.438 6.227-.803 1.139.937-3.684h3.014l-.87.47c0 .066-1.34.803-2.278 2.075Zm.536-2.009-.2.87c.334-.334.669-.602 1.004-.87h-.804Zm.268-1.138h-.536v-.87h4.286v.535h-3.75v.335Zm2.947-3.014c0-.67.535-1.272 1.205-1.272s1.205.536 1.205 1.272v1.607h-2.41v-1.607Zm.468 1.072h1.407v-1.072c0-.402-.335-.736-.67-.736-.402 0-.67.334-.67.736v1.072h-.067Zm5.023-1.072c0-.67.536-1.272 1.205-1.272.67 0 1.206.536 1.206 1.272v1.607h-2.411v-1.607Zm.536 1.072h1.406v-1.072c0-.402-.335-.736-.67-.736-.401 0-.67.334-.67.736v1.072h-.066Zm4.821 1.607h-3.75v-.536h4.286v.87h-.536v-.334Zm-3.616-10.514h4.018v.87h-.536v-.334h-3.013v.335h-.536v-.87h.067Zm0 1.473h3.683v.938h-.536v-.335h-2.678v.335h-.536v-.938h.067Zm3.415 6.362v1.607h-2.41v-1.607c0-.67.535-1.272 1.205-1.272s1.205.536 1.205 1.272Zm-1.875 0v1.072h1.406v-1.072c0-.402-.334-.736-.67-.736a.743.743 0 0 0-.736.736Zm-1.54-4.888h3.482v3.214h-3.482v-3.214Zm.536 2.678h2.478v-2.143h-2.478v2.143Zm1.205-.2a.814.814 0 0 1-.803-.804c0-.469.334-.804.803-.804.469 0 .804.402.804.804a.774.774 0 0 1-.804.803Zm0-1.072a.288.288 0 0 0-.268.268c0 .134.134.268.268.268a.288.288 0 0 0 .268-.268c0-.201-.134-.268-.268-.268ZM67.76 37.769h4.018v.87h-.535v-.334h-3.014v.335h-.536v-.87h.067Zm.268 1.473h3.683v.938h-.468v-.335h-2.68v.335h-.535v-.938Zm2.813 6.362v1.607h-2.411v-1.607c0-.67.536-1.272 1.205-1.272.67 0 1.206.536 1.206 1.272Zm-1.942 0v1.072h1.406v-1.072c0-.402-.335-.736-.67-.736a.743.743 0 0 0-.736.736Zm-.603-4.888h3.482v3.214h-3.482v-3.214Zm.469 2.678h2.478v-2.143h-2.478v2.143Zm1.205-.2a.814.814 0 0 1-.803-.804c0-.469.335-.804.803-.804.469 0 .804.402.804.804a.774.774 0 0 1-.804.803Zm0-1.072a.288.288 0 0 0-.268.268c0 .134.134.268.268.268a.288.288 0 0 0 .268-.268c.067-.201-.067-.268-.268-.268Zm12.657-5.826v.87H78.34l-.067-.535c-.134-1.139-1.004-2.076-2.277-2.411h-.067c-.268-.067-.602-.268-.937-.469-.268.268-.67.402-.938.469h-.067c-1.272.335-2.143 1.272-2.277 2.41l-.067.536h-4.285v-.87h.535v.335h3.282v-.067c.134-1.34 1.205-2.478 2.678-2.88.201-.067.603-.268.87-.536v-.87c-.334-.067-.602-.268-.602-.469 0-.2.134-.335.402-.402a1.007 1.007 0 0 1-.67-.937c0-.201.067-.402.201-.603V29.8c0-.402.268-.67.67-.803v-.335c-.268-.067-.469-.201-.469-.402s.201-.335.469-.402h-.134v-.402h.134v-.268h.469v.268h.134v.402h-.134c.267.067.468.201.468.402 0 .2-.2.335-.468.402v.335c.401.067.67.401.67.803v.067c.133.201.2.402.2.603 0 .402-.268.736-.67.937.201.067.402.268.402.402 0 .268-.2.402-.602.469v.87c.2.268.67.47.87.536 1.474.402 2.478 1.54 2.612 2.88v.067h3.281v-.335h.67Zm-7.768-6.764c-.134.067-.201.201-.201.335s.067.268.2.335v-.67Zm0 1.072-.402-.201v.134c0 .268.134.469.402.536v-.47Zm.469-1.072v.67c.133-.067.2-.201.2-.335s-.133-.268-.2-.335Zm.401 1.005v-.134l-.401.2v.47c.2-.067.401-.268.401-.536Zm-.334 1.34c-.067-.068-.134-.068-.335-.068s-.268.067-.335.067c.067 0 .134.067.335.067.2 0 .335 0 .335-.067Zm.937 13.727v1.607h-2.41v-1.607c0-.67.535-1.272 1.205-1.272s1.205.536 1.205 1.272Zm-1.875 0v1.072h1.406v-1.072c0-.402-.334-.736-.67-.736-.468 0-.736.334-.736.736Zm-2.076-1.942v-4.955c0-1.407 1.205-2.612 2.679-2.612 1.473 0 2.678 1.138 2.678 2.612v5.223h-5.29v-.268h-.067Zm.536-1.942v1.674h4.286v-4.687c0-1.139-.938-2.076-2.143-2.076-1.206 0-2.143.937-2.143 2.076v3.013Zm-27.858 4.822h22.099v.535h-22.1v-.535ZM65.95 59.265h4.755v1.474H65.95v-1.474Zm.536.938h3.75V59.8h-3.75v.402Zm4.219 2.88h-.335c-.402 0-.737-.067-1.004-.201-.603.2-1.474.2-2.076 0-.335.134-.737.2-1.072.2h-.268V61.14h4.822v1.943h-.067Zm-.536-1.407h-3.75v.938c.268 0 .536-.067.737-.201l.134-.067.133.067c.268.134.603.2.938.2.335 0 .67-.066.938-.2l.133-.067.134.067c.201.067.47.134.737.2v-.937h-.134Zm-3.683 1.741h3.683l.536 4.22h-4.822l.603-4.22Zm3.616 3.683-.402-3.147h-2.745l-.469 3.147h3.616Zm-1.741-2.745a1.2 1.2 0 0 1 1.205 1.205 1.2 1.2 0 0 1-1.205 1.206 1.2 1.2 0 0 1-1.205-1.206 1.2 1.2 0 0 1 1.205-1.205Zm0 1.875c.402 0 .67-.335.67-.67 0-.402-.268-.67-.67-.67a.671.671 0 0 0-.67.67c0 .335.268.67.67.67Zm2.21 7.366h-4.554v-3.08h4.554v3.08Zm-.536-2.612h-3.482v2.01h3.482v-2.01Zm-3.281-2.946H69.7c.47 0 .87.469.87 1.005 0 .535-.4 1.004-.87 1.004h-2.946c-.469 0-.87-.469-.87-1.004 0-.603.401-1.005.87-1.005Zm0 1.406H69.7c.201 0 .335-.2.335-.469 0-.267-.134-.468-.335-.468h-2.946c-.201 0-.335.2-.335.468s.134.47.335.47Zm-3.482 4.152V69.11h2.009v4.487h-2.01Zm1.54-3.95h-1.005v3.415h1.005v-3.416Zm-5.29 3.95V69.11h3.214v4.487h-3.215Zm2.745-3.95h-2.21v3.415h2.21v-3.416Zm-5.223 3.95V69.11h2.009v4.487h-2.01Zm1.473-3.95h-1.005v3.415h1.005v-3.416Zm-5.223 3.95V69.11h3.214v4.487h-3.214Zm2.745-3.95h-2.21v3.415h2.21v-3.416Zm-5.223 3.95V69.11h2.009v4.487h-2.01Zm1.473-3.95h-1.004v3.415h1.004v-3.416Zm-5.223 3.95V69.11h3.214v4.487h-3.214Zm2.745-3.95h-2.21v3.415h2.21v-3.416Zm-5.357 3.95V69.11h2.143v4.487h-2.143Zm1.607-3.95h-1.071v3.415h1.071v-3.416Zm-2.478-.403v1.474h-1.808v-1.474h1.808Zm-1.272.938h.737v-.402h-.737v.402Zm1.607 3.415h-2.41v-2.544h2.41v2.544Zm-.468-2.009h-1.407v1.474h1.407v-1.474Zm-7.166 2.01v-2.545h4.62v2.544h-4.62Zm4.085-2.01h-3.55v1.474h3.55v-1.474Zm-4.42-2.344h5.224v1.407H35.95v-1.407Zm.536.87h4.152v-.334h-4.152v.335Zm-1.205-.87v1.474h-1.742v-1.474h1.742Zm-1.206.938h.737v-.402h-.737v.402Zm1.607 3.415h-2.41v-2.544h2.41v2.544Zm-.535-2.009H33.74v1.474h1.407v-1.474Zm-7.032 2.01v-2.545h4.62v2.544h-4.62Zm4.085-2.01h-3.55v1.474h3.55v-1.474Zm-4.487-2.344h5.224v1.407h-5.224v-1.407Zm.536.87h4.152v-.334h-4.152v.335Zm-3.482-1.941h40.85v.536h-40.85v-.536Zm2.21 1.071v1.474h-1.741v-1.474h1.74Zm-1.206.938h.737v-.402h-.737v.402Zm1.607 3.415h-2.41v-2.544h2.41v2.544Zm-.468-2.009h-1.407v1.474h1.407v-1.474Zm-5.76-.535h3.081v2.477h-3.08v-2.477Zm.536 2.008h2.01v-1.406h-2.01v1.407Zm-.535-4.285h3.08v1.808h-3.08v-1.808Zm.535 1.272h2.01v-.737h-2.01v.737Zm-.535-3.482h3.08v1.808h-3.08v-1.808Zm.535 1.272h2.01V67.1h-2.01v.737Zm-.535-3.482h3.08v1.808h-3.08v-1.808Zm.535 1.272h2.01v-.736h-2.01v.736Zm-.535-3.415h3.08v1.808h-3.08v-1.808Zm.535 1.205h2.01v-.736h-2.01v.736Zm-.535-3.415h3.08v1.808h-3.08v-1.808Zm.535 1.205h2.01v-.736h-2.01v.736Zm-.535-3.415h3.08V59.6h-3.08v-1.808Zm.535 1.273h2.01v-.737h-2.01v.736Zm-.535-3.483h3.08v1.808h-3.08v-1.808Zm.535 1.273h2.01v-.737h-2.01v.737Zm-.535-3.483h3.08v1.808h-3.08v-1.808Zm.535 1.273h2.01v-.737h-2.01v.737Zm-.535-3.148 3.08-.468v1.874h-3.08v-1.406Zm.535.87h2.01v-.803l-2.01.402v.402Zm-.401 77.816h.803l.87 1.607v-1.607h.67v1.607l.871-1.607h.804l-.938 1.607.938 2.076h-.804l-.603-1.473-.268.335v1.138h-.67v-1.138l-.267-.335-.603 1.473h-.803l.937-2.076-.937-1.607Zm7.634 1.339c0 .469 0 1.005-.067 1.273l1.004-2.679h.737v3.683h-.67v-1.406c0-.536 0-.938.067-1.273l-1.004 2.679h-.737v-3.683h.67v1.406Zm5.09.402v-1.741h2.142v3.683h-.67v-3.147h-.736v1.406c0 1.205-.201 1.808-.804 1.808-.134 0-.268 0-.402-.067v-.536h.201c.201.067.268-.067.268-1.406Zm6.428-1.808c.737 0 1.205.335 1.205 1.272v1.34c0 .937-.468 1.272-1.205 1.272-.737 0-1.205-.335-1.205-1.272v-1.34c0-.937.535-1.272 1.205-1.272Zm-.469 2.679c0 .401.134.602.469.602.335 0 .469-.201.469-.602v-1.541c0-.401-.201-.602-.469-.602-.335 0-.469.201-.469.602v1.541Zm5.157-3.617h.334c0 .268.134.402.402.402.201 0 .402-.134.402-.402h.335c0 .402-.134.737-.737.737-.602 0-.736-.335-.736-.737Zm.267 2.344c0 .469 0 1.005-.066 1.273l1.004-2.679h.737v3.683h-.67v-1.406c0-.536 0-.938.067-1.273l-1.005 2.679h-.736v-3.683h.67v1.406Zm9.242.268.87-1.607h.804l-.938 1.607.938 2.076h-.803l-.603-1.473-.268.335v1.138h-.67v-3.683h.67v1.607Zm6.83-.737c0 .335-.2.737-.468.804.335.134.535.402.535.871 0 .669-.267 1.071-.87 1.071h-1.406v-3.683h1.272c.67.067.938.469.938.937Zm-1.473 2.277h.469c.268 0 .402-.134.402-.602 0-.335-.134-.536-.402-.536h-.469v1.138Zm0-2.678v1.004h.402c.335 0 .402-.201.402-.469 0-.334-.134-.468-.402-.468h-.402v-.067Zm6.228-.469.804 3.683h-.737l-.2-.937h-.804l-.201.937h-.737l.938-3.683h.937Zm-.2 2.143-.269-1.741-.335 1.741h.603Zm6.16-1.072c0 .603-.402 1.139-1.004 1.139h-.603v1.473h-.67v-3.683h1.34c.535 0 .937.469.937 1.071Zm-1.607-.535v1.071h.335c.335 0 .535-.201.535-.536 0-.334-.2-.535-.535-.535h-.335Zm6.965 0h-.871v3.147h-.67v-3.147h-.87v-.536h2.477v.536h-.066Zm4.352-.536.804 3.683h-.737l-.2-.937h-.804l-.201.937h-.737l.938-3.683h.937Zm-.2 2.143-.268-1.741-.335 1.741h.602ZM75.393 0h-.536v7.3c-.402.133-.737.468-.737.937a1.03 1.03 0 0 0 1.005 1.004 1.03 1.03 0 0 0 1.004-1.004c0-.469-.335-.804-.736-.938V0Zm10.513 131.924v-1.741h2.143v3.683h-.67v-3.147h-.736v1.406c0 1.205-.201 1.808-.804 1.808-.134 0-.268 0-.401-.067v-.536h.2c.201.067.268-.067.268-1.406ZM105.461 93.418c.201-.067.402-.134.469-.267.067-.134.134-.335.134-.603v-4.956h-4.754l-2.813 4.889c-.2.335-.335.603-.335.67 0 .133.134.2.469.267v.335h-2.88v-.335c.335 0 .603-.2.804-.468l3.147-5.358c-1.071-.067-1.942-.468-2.611-1.138-.603-.67-.938-1.473-.938-2.545 0-.67.134-1.34.469-1.875.268-.469.603-.87 1.004-1.138.402-.268.871-.47 1.407-.603.535-.134 1.272-.2 2.21-.2h6.83v.334c-.201.067-.402.134-.469.268a1.336 1.336 0 0 0-.134.603v11.25c0 .268.067.469.134.603.067.133.201.2.469.267v.335h-2.612v-.335Zm.603-11.987h-4.888c-.737 0-1.273 0-1.608.067-.334.067-.67.201-.937.335-.67.402-.938 1.072-.938 2.01 0 .937.335 1.606.938 2.008.268.134.603.268.937.335.335.067.871.067 1.541.067h5.022v-4.822h-.067Zm-11.987 40.18v.67c0 .335.067.603.134.938.067.334.201.535.268.736.2.201.402.402.737.469l-.067.335c-.67-.201-1.139-.603-1.54-1.072-.47-.669-.737-1.607-.737-2.812 0-.201 0-.402-.067-.536H80.952c0 .201-.067.335-.067.536-.067 1.205-.268 2.143-.804 2.812-.335.536-.87.871-1.54 1.072l-.067-.335c.335-.134.536-.268.737-.469.134-.134.2-.402.267-.736.067-.335.134-.603.134-.938v-2.344a.512.512 0 0 0-.133-.335c-.067-.067-.201-.134-.47-.134l-.066-.334h2.344c.066-.201.2-.469.334-.737l3.951-9.643c.134-.402.201-.67.201-.804 0-.268-.2-.469-.535-.536v-.334h3.415v.334c-.335.067-.536.268-.536.536 0 .134.067.402.201.804l4.018 9.978c.067.201.134.335.201.469h2.076l-.067.334c-.268.067-.402.067-.469.134a.512.512 0 0 0-.134.335v1.005c.134.134.067.401.134.602Zm-3.214-3.013-3.884-9.844-3.951 9.844a3.267 3.267 0 0 1-.201.469h8.17c0-.134-.067-.335-.134-.469Zm-.603-25.18c.335-.067.536-.2.536-.468 0-.134-.067-.335-.201-.603l-1.005-2.41h-6.63l-1.07 2.61c-.135.269-.135.403-.135.537 0 .2.201.334.536.401v.335h-2.746v-.335c.268-.067.47-.133.536-.334.134-.134.268-.47.536-1.005l4.554-10.781c.134-.268.134-.47.134-.536 0-.201-.134-.335-.47-.402v-.335h3.014v.335c-.268.134-.469.268-.469.402 0 .067.068.268.135.469l4.352 10.38c.335.736.536 1.205.67 1.339.134.134.335.267.67.335v.334H90.26v-.268ZM86.242 81.9l-2.813 6.697h5.559L86.242 81.9Zm-12.054 38.238c.335-.067.536-.201.536-.469 0-.134-.067-.335-.201-.602l-1.004-2.411h-6.63l-1.072 2.612c-.134.267-.134.401-.134.535 0 .201.201.335.536.402v.335h-2.745v-.335c.267-.067.401-.134.535-.268s.268-.469.536-1.004l4.554-10.782c.134-.268.134-.402.134-.536 0-.201-.134-.268-.47-.401v-.335h3.014v.335c-.267.133-.468.267-.468.401 0 .067.067.268.133.469l4.353 10.38c.335.737.536 1.205.603 1.339.134.134.335.268.67.335v.335H74.12v-.335h.067ZM70.17 108.62l-2.813 6.696h5.559l-2.746-6.696Zm3.349-15.202c.267-.067.401-.134.401-.267 0-.067-.134-.335-.401-.67l-4.487-6.295-2.813 2.344v4.018c0 .268.067.469.134.603.067.133.268.2.469.267v.335H64.21v-.335c.201-.067.402-.134.469-.267.067-.134.134-.335.134-.603v-11.25c0-.268-.067-.47-.134-.603-.067-.134-.201-.201-.469-.268v-.335h2.612v.335c-.201.067-.402.134-.469.268a1.338 1.338 0 0 0-.134.603v5.625l6.697-5.76c.268-.2.335-.334.335-.468s-.134-.268-.335-.268v-.335h3.281v.335c-.335 0-.737.2-1.071.469l-5.023 4.286 5.558 7.7c.134.202.268.335.402.402s.268.134.536.134v.335h-3.014v-.335h-.066Zm-13.193 30.336c-.469-.669-.737-1.607-.737-2.812 0-.201 0-.335-.066-.536H45.727v-.335c.268-.067.402-.134.47-.268.066-.134.133-.335.133-.602V107.95c0-.268-.067-.469-.134-.603-.067-.133-.2-.2-.469-.267v-.335h2.612v.335c-.2.067-.402.134-.469.267a1.338 1.338 0 0 0-.134.603v11.251h4.42v-11.184c0-.268-.067-.469-.134-.603-.067-.133-.2-.2-.469-.267v-.335h2.612v.335c-.2.067-.402.134-.469.267a1.338 1.338 0 0 0-.134.603v11.184h4.42v-11.184c0-.268-.067-.469-.134-.603-.067-.133-.2-.2-.468-.267v-.335h2.611v.335c-.2.067-.402.134-.468.267a1.338 1.338 0 0 0-.135.603v11.184h2.077l-.068.334c-.267.067-.401.067-.468.134a.512.512 0 0 0-.134.335v2.344c0 .335.067.603.134.938.067.334.2.535.268.736.2.201.401.402.736.469l-.067.335c-.602-.201-1.138-.603-1.54-1.072Zm-.402-34.22 1.608 2.143-.201.201c-.201-.134-.335-.268-.402-.268s-.201.067-.335.201c-.536.469-1.005.804-1.406 1.005-.335.2-.737.401-1.206.602a8.341 8.341 0 0 1-3.013.536c-2.076 0-3.817-.67-5.09-1.942-1.406-1.34-2.076-3.013-2.076-5.09 0-1.606.402-3.08 1.273-4.218 1.339-1.875 3.348-2.813 6.027-2.813 1.808 0 3.482.536 5.156 1.54.134.067.201.067.201.067.067 0 .2-.133.402-.401l.268.134-1.34 2.477-.267-.134c.066-.2.066-.334.066-.468 0-.268-.401-.603-1.138-1.005-1.072-.603-2.21-.87-3.482-.87-1.674 0-3.08.535-4.152 1.54-1.072 1.071-1.607 2.41-1.607 4.085 0 1.674.535 3.013 1.674 4.152 1.071 1.071 2.41 1.607 4.018 1.607 1.607 0 2.88-.469 4.085-1.473.535-.47.803-.737.803-.938 0-.067-.067-.268-.134-.469l.268-.2Zm-16.54-2.277c-.603.201-1.474.335-2.612.335h-4.554v5.09c0 .2.067.335.134.469.067.133.268.2.469.267v.335h-2.612v-.335c.201-.067.402-.134.469-.267.067-.134.134-.268.134-.47V81.165c0-.201-.067-.335-.134-.47-.067-.133-.268-.2-.469-.267v-.335h6.563c.937 0 1.607.067 2.143.134.535.134.937.268 1.34.603.4.268.736.67 1.004 1.138.267.536.401 1.139.401 1.808 0 .938-.267 1.741-.803 2.411-.335.536-.804.87-1.474 1.071Zm0-5.424c-.268-.2-.536-.268-.871-.335-.335-.067-.87-.067-1.54-.067h-4.688v4.889h4.688c.67 0 1.205 0 1.54-.067.335-.067.67-.2.938-.335.602-.402.937-1.071.937-2.009-.067-1.004-.402-1.674-1.005-2.076Zm-1.54 26.653c.736.67 1.339 1.54 1.673 2.545.335.803.47 1.741.47 2.678 0 1.273-.336 2.478-1.005 3.616-.737 1.273-1.741 2.143-3.08 2.679-1.005.402-2.077.603-3.35.603-2.209 0-3.95-.603-5.29-1.875-.736-.737-1.339-1.54-1.674-2.545-.334-.804-.468-1.674-.468-2.612 0-1.339.334-2.611 1.004-3.75.737-1.205 1.741-2.143 3.08-2.678.938-.402 2.01-.603 3.282-.603 2.277.067 4.018.737 5.357 1.942Zm-9.71 1.205c-1.005 1.072-1.474 2.344-1.474 3.951 0 1.608.469 2.947 1.473 3.951 1.072 1.139 2.545 1.741 4.42 1.741s3.348-.535 4.487-1.741c1.004-1.071 1.473-2.343 1.473-3.884 0-1.674-.469-3.013-1.473-4.018-.603-.602-1.206-1.071-1.942-1.272-.737-.268-1.608-.402-2.545-.402-1.875 0-3.348.536-4.42 1.674Zm-3.416-16.273c.335-.067.536-.2.536-.468 0-.134-.067-.335-.201-.603l-1.005-2.41h-6.63l-1.071 2.61c-.134.269-.134.403-.134.537 0 .2.201.334.536.401v.335h-2.746v-.335c.268-.067.469-.133.536-.334.134-.134.335-.47.536-1.005l4.553-10.781c.134-.268.134-.47.134-.536 0-.201-.134-.335-.468-.402v-.335h3.013v.335c-.268.134-.469.268-.469.402 0 .067.067.268.134.469l4.353 10.38c.335.736.536 1.205.67 1.339.134.134.335.267.67.335v.334h-2.947v-.268ZM24.767 81.9l-2.813 6.697h5.558L24.767 81.9Zm-3.55 25.849c0-.268-.2-.468-.535-.535v-.335h3.482v.335c-.335.067-.536.267-.536.535 0 .134.067.402.201.804l4.085 10.179c.201.536.402.87.536 1.071.134.134.268.268.603.335v.335h-2.947v-.335c.335-.067.536-.268.536-.536 0-.201-.067-.535-.268-.937l-4.018-10.045-4.018 10.045c-.2.402-.268.736-.268.937 0 .268.201.402.536.536v.335h-2.813v-.335c.268-.067.47-.201.603-.335.134-.134.335-.602.603-1.339l4.018-9.911c.134-.402.2-.67.2-.804Zm-6.964-12.991v.67c0 .334.067.602.134.937.067.335.2.536.268.737.2.2.402.401.737.468l-.067.335c-.67-.2-1.139-.603-1.54-1.071-.47-.67-.737-1.608-.737-2.813v-.335H.927v-.335c.268-.067.402-.133.469-.267.066-.134.133-.335.133-.603V81.23c0-.268-.067-.47-.133-.603-.067-.134-.201-.201-.47-.268v-.335h2.612v.335c-.2.067-.401.134-.468.268a1.338 1.338 0 0 0-.134.603v10.982h8.505V81.231c0-.268-.068-.47-.134-.603-.067-.134-.201-.201-.47-.268v-.335h2.613v.335c-.201.067-.402.134-.47.268a1.339 1.339 0 0 0-.133.603v10.982h2.009l-.067.335c-.268.067-.402.067-.469.134a.511.511 0 0 0-.134.335v1.004c.067.201.067.469.067.737Zm-.803 12.456c-.268.067-.402.133-.47.267a1.34 1.34 0 0 0-.133.603v11.25c0 .268.067.469.134.603s.2.201.469.268v.335h-2.612v-.335c.2-.067.402-.134.469-.268a1.34 1.34 0 0 0 .133-.603v-10.982H2.937v10.982c0 .268.067.469.134.603s.2.201.468.268v.335H.927v-.335c.2-.067.402-.134.469-.268.066-.134.133-.335.133-.603v-11.25c0-.268-.067-.469-.133-.603-.067-.134-.201-.2-.47-.267v-.335H13.45v.335Zm85.717 0c-.201.067-.402.133-.47.267-.066.134-.133.268-.133.469v5.09h4.487c1.138 0 2.009.067 2.611.334.603.201 1.139.536 1.541 1.072.535.67.803 1.473.803 2.411 0 .669-.134 1.272-.402 1.808-.267.469-.602.87-1.004 1.138a4.843 4.843 0 0 1-1.339.603c-.536.134-1.206.134-2.143.134h-6.563v-.335c.2-.067.402-.134.469-.268.067-.134.134-.268.134-.469V107.95c0-.201-.067-.335-.134-.469-.067-.134-.201-.2-.47-.267v-.335h2.613v.335Zm-.536 11.987h4.621c.669 0 1.205 0 1.54-.067.335-.067.603-.201.87-.335.603-.402.938-1.072.938-2.009 0-.938-.335-1.607-.938-2.009-.267-.201-.535-.268-.937-.335-.335-.067-.871-.067-1.54-.067h-4.621v4.822h.067Z"/></svg>