<svg xmlns="http://www.w3.org/2000/svg" width="215" height="235" fill="none"><path fill="#fff" fill-opacity="0.2" d="M41.393 101.729 22.475 82.677C10.4 98.242 2.887 116.22.606 134.868h27.102c1.878-11.672 6.574-23.076 13.685-33.139Zm-13.685 59.973H.606c2.28 18.649 9.66 36.627 21.735 52.19l18.917-19.051c-6.976-10.063-11.672-21.333-13.55-33.139Zm13.55 71.376c15.564 12.075 33.676 19.32 52.325 21.601v-27.236c-11.672-2.012-22.942-6.574-33.005-13.819l-19.32 19.454Zm79.159-191.187V.7L59.371 61.749l61.046 59.704v-52.46c38.103 6.44 67.083 39.445 67.083 79.293 0 39.847-28.98 72.852-67.083 79.292v27.102c52.996-6.574 93.916-51.654 93.916-106.394s-40.92-99.82-93.916-106.394Z"/></svg>